<svg width="169" height="52" viewBox="0 0 169 52" fill="none" xmlns="http://www.w3.org/2000/svg">
<g filter="url(#filter0_d_32_2321)">
<rect x="3" y="1.93774" width="163" height="46.8758" rx="8.52287" fill="white" shape-rendering="crispEdges"/>
<rect x="3.53268" y="2.47042" width="161.935" height="45.8105" rx="7.9902" stroke="#E9EAEB" stroke-width="1.06536" shape-rendering="crispEdges"/>
<path d="M45.9583 24.6054V35.0228H47.4051H48.852L48.8616 29.737C48.8616 26.8336 48.8616 23.9688 48.852 23.3708C48.8423 22.7824 48.8809 22.2904 48.9195 22.2904C48.9581 22.3001 51.5045 25.2903 54.5719 28.946C57.6392 32.6114 60.2146 35.6016 60.2918 35.6016C60.4076 35.6016 60.4269 34.1451 60.4269 25.1842V14.7668H58.98H57.5331V21.2391C57.5331 25.4542 57.5042 27.6824 57.4367 27.6438C57.3884 27.6149 54.842 24.5668 51.7939 20.8918C48.7362 17.2071 46.1705 14.188 46.0933 14.188C45.9775 14.188 45.9583 15.6059 45.9583 24.6054Z" fill="#041447"/>
<path d="M129.481 14.4676C128.111 14.7666 126.317 15.7215 125.497 16.5896L125.217 16.8886L125.738 17.4867C126.018 17.8243 126.471 18.3452 126.732 18.6442L127.204 19.194L127.648 18.8081C128.661 17.9207 129.857 17.4577 131.169 17.4577C132.673 17.4481 133.86 17.9593 134.998 19.0975C135.422 19.5219 135.885 20.1103 136.098 20.4865C136.946 22.0105 137.342 24.1422 137.12 25.9749C136.995 26.9877 136.58 28.4442 136.233 29.023C136.136 29.2063 136.078 29.3992 136.117 29.457C136.146 29.5246 136.59 30.0454 137.101 30.6338C137.602 31.2126 138.036 31.7141 138.056 31.7431C138.22 31.9649 139.454 29.4474 139.763 28.2417C141.171 22.6664 138.991 17.1009 134.583 15.0656C133.484 14.5544 132.722 14.3808 131.419 14.3229C130.561 14.2939 130.117 14.3229 129.481 14.4676Z" fill="#041447"/>
<path d="M11.5229 16.2617V17.7568H14.272H17.021V26.3898V35.0227H18.5161H20.0112V26.3898V17.7568H22.7602H25.5093V16.2617V14.7667H18.5161H11.5229V16.2617Z" fill="#041447"/>
<path d="M29.657 16.2617V17.7568H35.348H41.039V16.2617V14.7667H35.348H29.657V16.2617Z" fill="#1185B8"/>
<path d="M64.9506 15.847C65.3171 16.445 66.6772 18.6925 67.989 20.8338L70.3619 24.7211L67.4585 29.6597C65.8573 32.3701 64.478 34.6851 64.4008 34.8105L64.2561 35.0227L66.0213 35.0034L67.7768 34.9745L73.8054 25.0394C77.1139 19.5702 79.8726 15.0271 79.9208 14.9306C80.0076 14.7763 79.9015 14.7667 78.3003 14.7667H76.5834L74.4131 18.5189C72.619 21.6248 72.2235 22.2421 72.1367 22.1071C72.0788 22.0203 71.066 20.3322 69.8892 18.3549L67.7479 14.7667H66.0213H64.285L64.9506 15.847Z" fill="#041447"/>
<path d="M114.617 22.2616L114.588 29.766L114.356 30.3254C114.038 31.1357 113.43 31.8302 112.755 32.1774C112.273 32.4185 112.09 32.4668 111.453 32.4668C110.778 32.4668 110.633 32.4282 109.91 32.0713L109.119 31.6758L108.829 32.3124C108.675 32.6597 108.434 33.2095 108.299 33.5278L108.058 34.1065L108.376 34.3766C109.234 35.0904 110.749 35.5534 111.983 35.4762C114.327 35.3219 116.256 33.8172 117.115 31.4733C117.607 30.1422 117.617 29.9203 117.626 22.0687V14.7669H116.131H114.646L114.617 22.2616Z" fill="#041447"/>
<path d="M144.634 16.0013V17.2553L147.798 17.3035C149.833 17.3228 151.077 17.3806 151.309 17.4578C151.946 17.6604 152.553 18.1523 152.871 18.7214C153.151 19.2133 153.171 19.3194 153.171 20.2165C153.171 21.075 153.142 21.2389 152.91 21.6634C152.775 21.9238 152.553 22.2421 152.428 22.3482C151.868 22.8691 150.836 23.1488 149.534 23.1584H148.975V24.4027V25.647L150.499 25.6856C151.907 25.7146 152.052 25.7339 152.601 25.9943C153.306 26.3126 153.807 26.7949 154.106 27.4508C154.289 27.8559 154.328 28.0971 154.328 28.9459C154.328 30.1998 154.116 30.7496 153.392 31.4055C152.679 32.0518 152.003 32.2254 150.315 32.2254H148.975V33.6337V35.042L150.74 34.9938C152.679 34.9455 153.209 34.8394 154.328 34.3089C155.244 33.8749 155.91 33.3154 156.44 32.5341C158.341 29.7561 157.473 25.8978 154.646 24.5185L153.904 24.152L154.386 23.7565C155.669 22.7147 156.286 21.2872 156.18 19.6378C156.026 17.4289 154.695 15.7602 152.495 15.0464C151.849 14.8342 151.656 14.8245 148.232 14.7859L144.634 14.7474V16.0013Z" fill="#041447"/>
<path d="M90.2513 15.0658C88.4765 15.3648 86.5763 16.3777 85.2163 17.7473C84.0781 18.9048 83.3257 20.1588 82.8338 21.7793C82.6023 22.5509 82.5733 22.7728 82.5733 24.2679C82.5637 26.0427 82.6312 26.4189 83.2099 27.9236C84.0491 30.0939 86.2001 32.2063 88.4958 33.0841C90.4539 33.8364 93.0004 33.8847 94.9585 33.2095C95.5565 32.9973 96.6175 32.486 97.0034 32.2159C97.1384 32.1098 97.2831 32.0327 97.3024 32.0327C97.3313 32.0327 97.7557 32.6211 98.2477 33.3349C99.2315 34.7914 100.032 35.7752 100.572 36.2093C100.997 36.5469 101.749 36.6626 102.328 36.4697C102.791 36.3154 103.678 35.5051 103.919 34.9939C104.18 34.4634 104.18 33.7786 103.929 33.2963C103.669 32.785 102.82 32.0327 101.267 30.962C100.543 30.4604 99.8585 29.9878 99.7524 29.901L99.5595 29.7466L99.7524 29.4669C100.35 28.6277 100.948 27.0844 101.132 25.9173C101.305 24.8563 101.209 22.7245 100.948 21.8082C100.1 18.8759 97.8136 16.4452 94.9874 15.4806C94.4665 15.307 93.7624 15.1141 93.4151 15.0658C92.6724 14.9404 90.9748 14.9501 90.2513 15.0658ZM93.3573 17.4773C95.6722 17.921 97.7654 19.8308 98.5853 22.2423C98.8167 22.9175 98.8553 23.1682 98.8553 24.2679C98.865 25.3192 98.8264 25.6376 98.6335 26.2452C98.2091 27.6149 97.64 28.5023 96.5114 29.5441C94.5726 31.3382 91.7368 31.8398 89.2289 30.8173C87.2804 30.0264 85.7082 28.2226 85.1102 26.0909C84.8401 25.136 84.8208 23.612 85.0619 22.6763C86.0361 18.9724 89.5858 16.7442 93.3573 17.4773Z" fill="#1185B8"/>
<path d="M90.9363 19.8404C90.3672 20.0526 89.6631 20.6989 89.4026 21.2776C89.229 21.6345 89.1711 21.9336 89.1711 22.4351C89.1711 24.3932 91.0328 25.6761 92.8751 24.9913C93.9554 24.5765 94.6113 23.6216 94.6113 22.4351C94.6017 21.3452 94.1291 20.5253 93.2127 20.0237C92.5857 19.6861 91.5729 19.5993 90.9363 19.8404Z" fill="#041447"/>
<path d="M89.4603 25.9464C88.9105 25.985 88.4282 26.0718 88.245 26.1779C87.9556 26.3226 87.4444 26.8531 87.4347 26.9978C87.4251 27.0364 87.3865 27.2486 87.3479 27.4801L87.2708 27.8852L87.8784 28.4639C88.9684 29.4767 90.1066 29.9879 91.5052 30.0748C92.547 30.1423 93.3283 29.9976 94.2736 29.5635C95.6336 28.9366 96.5499 28.0492 96.4342 27.4608C96.3088 26.8049 95.8169 26.2165 95.2478 26.0525C94.8427 25.9367 90.6564 25.8596 89.4603 25.9464Z" fill="#041447"/>
<path d="M123.963 18.4033C121.822 21.7986 121.581 26.6022 123.356 30.2483C123.973 31.5119 124.581 32.3318 125.555 33.2385C128.198 35.6885 131.786 36.1804 135.008 34.5213C135.76 34.1355 137.062 33.1227 137.062 32.9298C137.062 32.8044 135.278 30.6823 135.172 30.6823C135.133 30.6823 134.882 30.8753 134.612 31.0971C134.062 31.5697 133.242 32.0038 132.529 32.1967C131.863 32.3703 130.436 32.3607 129.78 32.1774C127.291 31.4444 125.487 28.8689 125.256 25.7244C125.13 24.0268 125.381 22.4642 125.989 21.1138L126.326 20.3807L125.343 19.2328C124.802 18.6059 124.33 18.085 124.282 18.0657C124.233 18.0464 124.089 18.2008 123.963 18.4033Z" fill="#041447"/>
<path d="M144.634 26.9685V35.0227H146.129H147.624V26.9685V18.9143H146.129H144.634V26.9685Z" fill="#1185B8"/>
<path d="M29.657 29.3799V35.0227H35.4927H41.3283V33.5276V32.0325H36.9877H32.6472V29.3799V26.7274H36.3608H40.0744V25.2323V23.7372H34.8657H29.657V29.3799Z" fill="#041447"/>
<path d="M74.0081 27.4604L73.1689 28.8591L74.9245 31.9361L76.68 35.0227H78.3487H80.0174L79.9017 34.8009C79.6798 34.3764 74.9631 26.1969 74.9052 26.139C74.8762 26.1004 74.4711 26.6984 74.0081 27.4604Z" fill="#1185B8"/>
</g>
<defs>
<filter id="filter0_d_32_2321" x="0.869281" y="0.872385" width="167.261" height="51.1372" filterUnits="userSpaceOnUse" color-interpolation-filters="sRGB">
<feFlood flood-opacity="0" result="BackgroundImageFix"/>
<feColorMatrix in="SourceAlpha" type="matrix" values="0 0 0 0 0 0 0 0 0 0 0 0 0 0 0 0 0 0 127 0" result="hardAlpha"/>
<feOffset dy="1.06536"/>
<feGaussianBlur stdDeviation="1.06536"/>
<feComposite in2="hardAlpha" operator="out"/>
<feColorMatrix type="matrix" values="0 0 0 0 0.0392157 0 0 0 0 0.0496732 0 0 0 0 0.0705882 0 0 0 0.05 0"/>
<feBlend mode="normal" in2="BackgroundImageFix" result="effect1_dropShadow_32_2321"/>
<feBlend mode="normal" in="SourceGraphic" in2="effect1_dropShadow_32_2321" result="shape"/>
</filter>
</defs>
</svg>
